<?xml version="1.0" encoding="utf-8"?>
<!-- Generator: Adobe Illustrator 21.0.0, SVG Export Plug-In . SVG Version: 6.00 Build 0)  -->
<svg version="1.1" id="圖層_1" xmlns="http://www.w3.org/2000/svg" xmlns:xlink="http://www.w3.org/1999/xlink" x="0px" y="0px"
	 viewBox="0 0 24 26" style="enable-background:new 0 0 24 26;" xml:space="preserve">
<style type="text/css">
	.download0{clip-path:url(#downloadSVGID_2_);}
	.download1{clip-path:url(#downloadSVGID_4_);fill:#BB925B;}
	.download2{clip-path:url(#downloadSVGID_6_);}
	.download3{clip-path:url(#downloadSVGID_8_);fill:#BB925B;}
	.download4{clip-path:url(#downloadSVGID_10_);}
	.download5{clip-path:url(#downloadSVGID_12_);fill:none;stroke:#F7F7F7;stroke-width:4;stroke-miterlimit:10;}
</style>
<g>
	<defs>
		<path id="downloadSVGID_1_" d="M18,6.8v2.4h3.6v6H2.4v-6H6V6.8H2.4C1.1,6.8,0,7.9,0,9.2V20c0,1.3,1.1,2.4,2.4,2.4h8.4v1.2H7.2V26h9.6v-2.4
			h-3.6v-1.2h8.4c1.3,0,2.4-1.1,2.4-2.4V9.2c0-1.3-1.1-2.4-2.4-2.4H18z M2.4,17.6h19.2V20H2.4V17.6z"/>
	</defs>
	<clipPath id="downloadSVGID_2_">
		<use xlink:href="#downloadSVGID_1_"  style="overflow:visible;"/>
	</clipPath>
	<g class="download0">
		<defs>
			<rect id="downloadSVGID_3_" width="24" height="26"/>
		</defs>
		<clipPath id="downloadSVGID_4_">
			<use xlink:href="#downloadSVGID_3_"  style="overflow:visible;"/>
		</clipPath>
		<rect x="-5" y="1.8" class="download1" width="34" height="29.2"/>
	</g>
</g>
<g>
	<defs>
		<path id="downloadSVGID_5_" d="M9.8,11.3V2V1h1h2.4h1v1v9.3L13.5,12l-0.3-0.1v-1l2-2L16,8.1l0.7,0.7l1.7,1.7l0.7,0.7L18.4,12l-5.6,5.6
			L12,18.3l-0.7-0.7L5.7,12L5,11.2l0.7-0.7l1.7-1.7l0.7-0.7l0.7,0.7l2,2v1L10.6,12L9.8,11.3z M11.3,16.2L11.3,16.2L11.3,16.2z
			 M12.8,16.2L12.8,16.2L12.8,16.2L12.8,16.2z"/>
	</defs>
	<clipPath id="downloadSVGID_6_">
		<use xlink:href="#downloadSVGID_5_"  style="overflow:visible;"/>
	</clipPath>
	<g class="download2">
		<defs>
			<rect id="downloadSVGID_7_" width="24" height="26"/>
		</defs>
		<clipPath id="downloadSVGID_8_">
			<use xlink:href="#downloadSVGID_7_"  style="overflow:visible;"/>
		</clipPath>
		<rect x="1.4" y="-3" class="download3" width="21.3" height="24.9"/>
	</g>
</g>
<g>
	<defs>
		<path id="downloadSVGID_9_" d="M17.7,11.2L16,9.6l-2.8,2.8V2h-2.4v10.3L8.1,9.6l-1.7,1.7l5.6,5.6L17.7,11.2z M-5.6-10h35.3v38.9H-5.6V-10z
			"/>
	</defs>
	<clipPath id="downloadSVGID_10_">
		<use xlink:href="#downloadSVGID_9_"  style="overflow:visible;"/>
	</clipPath>
	<g class="download4">
		<defs>
			<rect id="downloadSVGID_11_" width="24" height="26"/>
		</defs>
		<clipPath id="downloadSVGID_12_">
			<use xlink:href="#downloadSVGID_11_"  style="overflow:visible;"/>
		</clipPath>
		<polygon class="download5" points="17.7,11.2 16,9.6 13.2,12.3 13.2,2 10.8,2 10.8,12.3 8.1,9.6 6.4,11.2 12,16.9 		"/>
	</g>
</g>
</svg>
