<?xml version="1.0" encoding="utf-8"?>
<!-- Generator: Adobe Illustrator 21.1.0, SVG Export Plug-In . SVG Version: 6.00 Build 0)  -->
<svg version="1.1" id="圖層_1" xmlns="http://www.w3.org/2000/svg" xmlns:xlink="http://www.w3.org/1999/xlink" x="0px" y="0px"
	 viewBox="0 0 20 24" style="enable-background:new 0 0 20 24;" xml:space="preserve">
<style type="text/css">
	.product0{fill:none;}
</style>
<path class="product0" d="M15.4,0H8C6.9,0,6,0.9,6,2v14c0,1.1,0.9,2,2,2h10c1.1,0,2-0.9,2-2V4.6L15.4,0z M18,16H8V2h6v4h4V16z"/>
<path class="product0" d="M2,6H0v16c0,1.1,0.9,2,2,2h12v-2H2V6z"/>
<path class="product0" d="M4.8,2.8h-2v16c0,1.1,0.9,2,2,2h12v-2h-12C4.8,18.8,4.8,2.8,4.8,2.8z"/>
</svg>
