<?xml version="1.0" encoding="utf-8"?>
<!-- Generator: Adobe Illustrator 21.0.0, SVG Export Plug-In . SVG Version: 6.00 Build 0)  -->
<svg version="1.1" id="圖層_1" xmlns="http://www.w3.org/2000/svg" xmlns:xlink="http://www.w3.org/1999/xlink" x="0px" y="0px"
	 viewBox="0 0 24 24" style="enable-background:new 0 0 24 24;" xml:space="preserve">
<style type="text/css">
	.st0{clip-path:url(#SVGID_2_);fill:#FFFFFF;}
	.st1{clip-path:url(#SVGID_4_);fill:#FFFFFF;}
	.st2{clip-path:url(#SVGID_6_);fill:#FFFFFF;}
</style>
<g>
	<defs>
		<path id="SVGID_1_" d="M17.4,0H10C8.9,0,8,0.9,8,2v14c0,1.1,0.9,2,2,2h10c1.1,0,2-0.9,2-2V4.6L17.4,0z M20,16H10V2h6v4h4L20,16z"
			/>
	</defs>
	<clipPath id="SVGID_2_">
		<use xlink:href="#SVGID_1_"  style="overflow:visible;"/>
	</clipPath>
	<rect x="3" y="-5" class="st0" width="24" height="28"/>
</g>
<g>
	<defs>
		<path id="SVGID_3_" d="M6.8,2.8h-2v16c0,1.1,0.9,2,2,2h12v-2h-12V2.8z"/>
	</defs>
	<clipPath id="SVGID_4_">
		<use xlink:href="#SVGID_3_"  style="overflow:visible;"/>
	</clipPath>
	<rect x="-0.2" y="-2.2" class="st1" width="24" height="28"/>
</g>
<g>
	<defs>
		<path id="SVGID_5_" d="M4,6H2v16c0,1.1,0.9,2,2,2h12v-2H4V6z"/>
	</defs>
	<clipPath id="SVGID_6_">
		<use xlink:href="#SVGID_5_"  style="overflow:visible;"/>
	</clipPath>
	<rect x="-3" y="1" class="st2" width="24" height="28"/>
</g>
</svg>
