<?xml version="1.0" encoding="utf-8"?>
<!-- Generator: Adobe Illustrator 21.0.0, SVG Export Plug-In . SVG Version: 6.00 Build 0)  -->
<svg version="1.1" id="bg" xmlns="http://www.w3.org/2000/svg" xmlns:xlink="http://www.w3.org/1999/xlink" x="0px" y="0px"
	 viewBox="0 0 24 24" style="enable-background:new 0 0 24 24;" xml:space="preserve">
<style type="text/css">
	<!-- .download0{fill-rule:evenodd;clip-rule:evenodd;fill:#BB925B;} -->
</style>
<path class="download0" d="M17.7,9.2L12,14.9L6.4,9.2l1.7-1.7l2.8,2.8V0h2.4v10.3L16,7.6L17.7,9.2z M14.2,15.6l2.4-2.4h5v-6H18V4.8h3.6
	c1.3,0,2.4,1.1,2.4,2.4V18c0,1.3-1.1,2.4-2.4,2.4h-8.4v1.2h3.6V24H7.2v-2.4h3.6v-1.2H2.4C1.1,20.4,0,19.3,0,18V7.2
	c0-1.3,1.1-2.4,2.4-2.4H6v2.4H2.4v6h5.1l2.4,2.4H2.4V18h19.2v-2.4H14.2z"/>
</svg>
