<?xml version="1.0" encoding="utf-8"?>
<!-- Generator: Adobe Illustrator 21.0.0, SVG Export Plug-In . SVG Version: 6.00 Build 0)  -->
<svg version="1.1" id="圖層_1" xmlns="http://www.w3.org/2000/svg" xmlns:xlink="http://www.w3.org/1999/xlink" x="0px" y="0px"
	 viewBox="0 0 68 64" style="enable-background:new 0 0 68 64;" xml:space="preserve">
<style type="text/css">
	.st0{clip-path:url(#SVGID_2_);}
	.st1{opacity:0.9;clip-path:url(#SVGID_4_);fill:#FFFFFF;}
	.st2{clip-path:url(#SVGID_6_);}
	.st3{clip-path:url(#SVGID_8_);fill:#BB925B;}
	.st4{clip-path:url(#SVGID_10_);}
	.st5{clip-path:url(#SVGID_12_);fill:#C3B893;}
	.st6{clip-path:url(#SVGID_14_);}
	.st7{clip-path:url(#SVGID_16_);fill:#BB925B;}
	.st8{clip-path:url(#SVGID_18_);}
	.st9{clip-path:url(#SVGID_20_);fill:#BB925B;}
	.st10{clip-path:url(#SVGID_22_);}
	.st11{clip-path:url(#SVGID_24_);fill:#BB925B;}
	.st12{clip-path:url(#SVGID_26_);}
	.st13{clip-path:url(#SVGID_28_);fill:#BB925B;}
	.st14{clip-path:url(#SVGID_30_);}
	.st15{clip-path:url(#SVGID_32_);fill:#BB925B;}
	.st16{clip-path:url(#SVGID_34_);}
	.st17{clip-path:url(#SVGID_36_);fill:#BB925B;}
	.st18{clip-path:url(#SVGID_38_);}
	.st19{clip-path:url(#SVGID_40_);fill:#BB925B;}
	.st20{clip-path:url(#SVGID_42_);}
	.st21{clip-path:url(#SVGID_44_);fill:#BB925B;}
	.st22{clip-path:url(#SVGID_46_);}
	.st23{clip-path:url(#SVGID_48_);fill:#BB925B;}
	.st24{clip-path:url(#SVGID_50_);}
	.st25{clip-path:url(#SVGID_52_);fill:#BB925B;}
	.st26{clip-path:url(#SVGID_54_);}
	.st27{clip-path:url(#SVGID_56_);fill:#BB925B;}
</style>
<g>
	<defs>
		<path id="SVGID_1_" d="M6,0h42l20,20v40c0,2.2-1.8,4-4,4H3v-7h3V0z"/>
	</defs>
	<clipPath id="SVGID_2_">
		<use xlink:href="#SVGID_1_"  style="overflow:visible;"/>
	</clipPath>
	<g class="st0">
		<defs>
			<rect id="SVGID_3_" width="68" height="64"/>
		</defs>
		<clipPath id="SVGID_4_">
			<use xlink:href="#SVGID_3_"  style="overflow:visible;"/>
		</clipPath>
		<rect x="-2" y="-5" class="st1" width="75" height="74"/>
	</g>
</g>
<g>
	<defs>
		<polygon id="SVGID_5_" points="48,20 68,20 48,0 		"/>
	</defs>
	<clipPath id="SVGID_6_">
		<use xlink:href="#SVGID_5_"  style="overflow:visible;"/>
	</clipPath>
	<g class="st2">
		<defs>
			<rect id="SVGID_7_" width="68" height="64"/>
		</defs>
		<clipPath id="SVGID_8_">
			<use xlink:href="#SVGID_7_"  style="overflow:visible;"/>
		</clipPath>
		<rect x="43" y="-5" class="st3" width="30" height="30"/>
	</g>
</g>
<g>
	<defs>
		<polygon id="SVGID_9_" points="68,20 48,20 68,40 		"/>
	</defs>
	<clipPath id="SVGID_10_">
		<use xlink:href="#SVGID_9_"  style="overflow:visible;"/>
	</clipPath>
	<g class="st4">
		<defs>
			<rect id="SVGID_11_" width="68" height="64"/>
		</defs>
		<clipPath id="SVGID_12_">
			<use xlink:href="#SVGID_11_"  style="overflow:visible;"/>
		</clipPath>
		<rect x="43" y="15" class="st5" width="30" height="30"/>
	</g>
</g>
<g>
	<defs>
		<path id="SVGID_13_" d="M0,7h6v54c0,1.7-1.3,3-3,3s-3-1.3-3-3V7z"/>
	</defs>
	<clipPath id="SVGID_14_">
		<use xlink:href="#SVGID_13_"  style="overflow:visible;"/>
	</clipPath>
	<g class="st6">
		<defs>
			<rect id="SVGID_15_" width="68" height="64"/>
		</defs>
		<clipPath id="SVGID_16_">
			<use xlink:href="#SVGID_15_"  style="overflow:visible;"/>
		</clipPath>
		<rect x="-5" y="2" class="st7" width="16" height="67"/>
	</g>
</g>
<g>
	<defs>
		<rect id="SVGID_17_" x="12" y="36" width="22" height="2"/>
	</defs>
	<clipPath id="SVGID_18_">
		<use xlink:href="#SVGID_17_"  style="overflow:visible;"/>
	</clipPath>
	<g class="st8">
		<defs>
			<rect id="SVGID_19_" width="68" height="64"/>
		</defs>
		<clipPath id="SVGID_20_">
			<use xlink:href="#SVGID_19_"  style="overflow:visible;"/>
		</clipPath>
		<rect x="7" y="31" class="st9" width="32" height="12"/>
	</g>
</g>
<g>
	<defs>
		<rect id="SVGID_21_" x="12" y="24" width="22" height="8"/>
	</defs>
	<clipPath id="SVGID_22_">
		<use xlink:href="#SVGID_21_"  style="overflow:visible;"/>
	</clipPath>
	<g class="st10">
		<defs>
			<rect id="SVGID_23_" width="68" height="64"/>
		</defs>
		<clipPath id="SVGID_24_">
			<use xlink:href="#SVGID_23_"  style="overflow:visible;"/>
		</clipPath>
		<rect x="7" y="19" class="st11" width="32" height="18"/>
	</g>
</g>
<g>
	<defs>
		<path id="SVGID_25_" d="M41.9,14.4c0-0.4-0.1-0.7-0.3-0.9c-0.2-0.2-0.6-0.4-1.1-0.7c-1.1-0.4-1.9-0.8-2.5-1.2
			c-0.5-0.4-0.8-1.1-0.8-1.9c0-0.8,0.3-1.5,1-2C38.8,7.3,39.6,7,40.6,7c1,0,1.8,0.3,2.4,0.8C43.7,8.4,44,9.1,44,10l0,0h-2
			c0-0.4-0.1-0.8-0.4-1.1c-0.2-0.3-0.6-0.4-1-0.4c-0.4,0-0.7,0.1-1,0.3c-0.2,0.2-0.3,0.5-0.3,0.9c0,0.3,0.1,0.6,0.4,0.8
			c0.3,0.2,0.7,0.4,1.3,0.7c1,0.3,1.7,0.7,2.3,1.2c0.5,0.5,0.8,1.1,0.8,1.9c0,0.8-0.3,1.5-0.9,2c-0.6,0.5-1.4,0.7-2.4,0.7
			c-1,0-1.9-0.3-2.6-0.8c-0.7-0.5-1.1-1.3-1.1-2.3l0,0h2c0,0.6,0.1,1,0.4,1.3c0.3,0.3,0.7,0.4,1.2,0.4c0.4,0,0.8-0.1,1-0.3
			C41.8,15,41.9,14.7,41.9,14.4z M34.1,13.4L34.1,13.4L35.2,7H37l-1.9,10.1h-1.8L32,10.9h0l-1.3,6.2h-1.8L27,7h1.8l1,6.4h0L31.3,7
			h1.4L34.1,13.4z M25.4,12.7H22v2.8h4v1.6h-6V7h6v1.6h-4v2.5h3.4V12.7z M19,17.1h-1.9L14,10.6l0,0v6.4h-2V7h2l3.1,6.4l0,0V7H19
			V17.1z M12,19h32v1H12V19z M12,4h32v1H12V4z"/>
	</defs>
	<clipPath id="SVGID_26_">
		<use xlink:href="#SVGID_25_"  style="overflow:visible;"/>
	</clipPath>
	<g class="st12">
		<defs>
			<rect id="SVGID_27_" width="68" height="64"/>
		</defs>
		<clipPath id="SVGID_28_">
			<use xlink:href="#SVGID_27_"  style="overflow:visible;"/>
		</clipPath>
		<rect x="7" y="-1" class="st13" width="42" height="26"/>
	</g>
</g>
<g>
	<defs>
		<rect id="SVGID_29_" x="12" y="42" width="22" height="2"/>
	</defs>
	<clipPath id="SVGID_30_">
		<use xlink:href="#SVGID_29_"  style="overflow:visible;"/>
	</clipPath>
	<g class="st14">
		<defs>
			<rect id="SVGID_31_" width="68" height="64"/>
		</defs>
		<clipPath id="SVGID_32_">
			<use xlink:href="#SVGID_31_"  style="overflow:visible;"/>
		</clipPath>
		<rect x="7" y="37" class="st15" width="32" height="12"/>
	</g>
</g>
<g>
	<defs>
		<rect id="SVGID_33_" x="12" y="48" width="22" height="2"/>
	</defs>
	<clipPath id="SVGID_34_">
		<use xlink:href="#SVGID_33_"  style="overflow:visible;"/>
	</clipPath>
	<g class="st16">
		<defs>
			<rect id="SVGID_35_" width="68" height="64"/>
		</defs>
		<clipPath id="SVGID_36_">
			<use xlink:href="#SVGID_35_"  style="overflow:visible;"/>
		</clipPath>
		<rect x="7" y="43" class="st17" width="32" height="12"/>
	</g>
</g>
<g>
	<defs>
		<rect id="SVGID_37_" x="12" y="54" width="22" height="2"/>
	</defs>
	<clipPath id="SVGID_38_">
		<use xlink:href="#SVGID_37_"  style="overflow:visible;"/>
	</clipPath>
	<g class="st18">
		<defs>
			<rect id="SVGID_39_" width="68" height="64"/>
		</defs>
		<clipPath id="SVGID_40_">
			<use xlink:href="#SVGID_39_"  style="overflow:visible;"/>
		</clipPath>
		<rect x="7" y="49" class="st19" width="32" height="12"/>
	</g>
</g>
<g>
	<defs>
		<rect id="SVGID_41_" x="39" y="36" width="22" height="2"/>
	</defs>
	<clipPath id="SVGID_42_">
		<use xlink:href="#SVGID_41_"  style="overflow:visible;"/>
	</clipPath>
	<g class="st20">
		<defs>
			<rect id="SVGID_43_" width="68" height="64"/>
		</defs>
		<clipPath id="SVGID_44_">
			<use xlink:href="#SVGID_43_"  style="overflow:visible;"/>
		</clipPath>
		<rect x="34" y="31" class="st21" width="32" height="12"/>
	</g>
</g>
<g>
	<defs>
		<rect id="SVGID_45_" x="39" y="42" width="22" height="2"/>
	</defs>
	<clipPath id="SVGID_46_">
		<use xlink:href="#SVGID_45_"  style="overflow:visible;"/>
	</clipPath>
	<g class="st22">
		<defs>
			<rect id="SVGID_47_" width="68" height="64"/>
		</defs>
		<clipPath id="SVGID_48_">
			<use xlink:href="#SVGID_47_"  style="overflow:visible;"/>
		</clipPath>
		<rect x="34" y="37" class="st23" width="32" height="12"/>
	</g>
</g>
<g>
	<defs>
		<rect id="SVGID_49_" x="39" y="48" width="22" height="2"/>
	</defs>
	<clipPath id="SVGID_50_">
		<use xlink:href="#SVGID_49_"  style="overflow:visible;"/>
	</clipPath>
	<g class="st24">
		<defs>
			<rect id="SVGID_51_" width="68" height="64"/>
		</defs>
		<clipPath id="SVGID_52_">
			<use xlink:href="#SVGID_51_"  style="overflow:visible;"/>
		</clipPath>
		<rect x="34" y="43" class="st25" width="32" height="12"/>
	</g>
</g>
<g>
	<defs>
		<rect id="SVGID_53_" x="39" y="54" width="22" height="2"/>
	</defs>
	<clipPath id="SVGID_54_">
		<use xlink:href="#SVGID_53_"  style="overflow:visible;"/>
	</clipPath>
	<g class="st26">
		<defs>
			<rect id="SVGID_55_" width="68" height="64"/>
		</defs>
		<clipPath id="SVGID_56_">
			<use xlink:href="#SVGID_55_"  style="overflow:visible;"/>
		</clipPath>
		<rect x="34" y="49" class="st27" width="32" height="12"/>
	</g>
</g>
</svg>
