<?xml version="1.0" encoding="utf-8"?>
<!-- Generator: Adobe Illustrator 21.0.0, SVG Export Plug-In . SVG Version: 6.00 Build 0)  -->
<svg version="1.1" id="圖層_1" xmlns="http://www.w3.org/2000/svg" xmlns:xlink="http://www.w3.org/1999/xlink" x="0px" y="0px"
	 viewBox="0 0 36 36" style="enable-background:new 0 0 36 36;" xml:space="preserve">
<style type="text/css">
	.st0{clip-path:url(#SVGID_2_);}
	.st1{clip-path:url(#SVGID_4_);fill:#0067B3;}
	.st2{clip-path:url(#SVGID_6_);}
	.st3{clip-path:url(#SVGID_8_);fill:none;stroke:#73B3E2;stroke-width:4;stroke-miterlimit:10;}
</style>
<g>
	<defs>
		<rect id="SVGID_1_" width="36" height="36"/>
	</defs>
	<clipPath id="SVGID_2_">
		<use xlink:href="#SVGID_1_"  style="overflow:visible;"/>
	</clipPath>
	<g class="st0">
		<defs>
			<rect id="SVGID_3_" width="36" height="36"/>
		</defs>
		<clipPath id="SVGID_4_">
			<use xlink:href="#SVGID_3_"  style="overflow:visible;"/>
		</clipPath>
		<rect x="-5" y="-5" class="st1" width="46" height="46"/>
	</g>
</g>
<g>
	<defs>
		<path id="SVGID_5_" d="M18,19c-2.8,0-5-2.2-5-5s2.2-5,5-5s5,2.2,5,5S20.8,19,18,19z M16.5,19h3.1c4.1,0,7.5,3.6,7.5,8.1
			c0,0.7-0.1,1.3-0.2,1.9H9.2C9.1,28.4,9,27.7,9,27.1C9,22.6,12.3,19,16.5,19z"/>
	</defs>
	<clipPath id="SVGID_6_">
		<use xlink:href="#SVGID_5_"  style="overflow:visible;"/>
	</clipPath>
	<g class="st2">
		<defs>
			<rect id="SVGID_7_" width="36" height="36"/>
		</defs>
		<clipPath id="SVGID_8_">
			<use xlink:href="#SVGID_7_"  style="overflow:visible;"/>
		</clipPath>
		<path class="st3" d="M18,19c-2.8,0-5-2.2-5-5s2.2-5,5-5c2.8,0,5,2.2,5,5S20.8,19,18,19z M16.5,19h3.1c4.1,0,7.5,3.6,7.5,8.1
			c0,0.7-0.1,1.3-0.2,1.9H9.2C9.1,28.4,9,27.7,9,27.1C9,22.6,12.3,19,16.5,19z"/>
	</g>
</g>
</svg>
