<?xml version="1.0" encoding="utf-8"?>
<!-- Generator: Adobe Illustrator 21.0.0, SVG Export Plug-In . SVG Version: 6.00 Build 0)  -->
<svg version="1.1" id="圖層_1" xmlns="http://www.w3.org/2000/svg" xmlns:xlink="http://www.w3.org/1999/xlink" x="0px" y="0px"
	 viewBox="0 0 60 60" style="enable-background:new 0 0 60 60;" xml:space="preserve">
<style type="text/css">
	.st0{clip-path:url(#SVGID_2_);}
	.st1{clip-path:url(#SVGID_4_);fill:none;stroke:#BB925B;stroke-width:8;stroke-miterlimit:10;}
	.st2{clip-path:url(#SVGID_6_);}
	.st3{clip-path:url(#SVGID_8_);fill:#BB925B;}
	.st4{clip-path:url(#SVGID_10_);}
	.st5{clip-path:url(#SVGID_12_);fill:#BB925B;}
	.st6{clip-path:url(#SVGID_14_);}
	.st7{clip-path:url(#SVGID_16_);fill:#BB925B;}
</style>
<g>
	<defs>
		<path id="SVGID_1_" d="M12,60V48H6c-3.3,0-6-2.7-6-6V6c0-3.3,2.7-6,6-6h48c3.3,0,6,2.7,6,6v36c0,3.3-2.7,6-6,6H28L12,60z"/>
	</defs>
	<clipPath id="SVGID_2_">
		<use xlink:href="#SVGID_1_"  style="overflow:visible;"/>
	</clipPath>
	<g class="st0">
		<defs>
			<rect id="SVGID_3_" width="60" height="60"/>
		</defs>
		<clipPath id="SVGID_4_">
			<use xlink:href="#SVGID_3_"  style="overflow:visible;"/>
		</clipPath>
		<path class="st1" d="M12,60V48H6c-3.3,0-6-2.7-6-6V6c0-3.3,2.7-6,6-6h48c3.3,0,6,2.7,6,6v36c0,3.3-2.7,6-6,6H28L12,60z"/>
	</g>
</g>
<g>
	<defs>
		<path id="SVGID_5_" d="M16,27c2.4,5.3,7.7,9,14,9s11.6-3.7,14-9H16z"/>
	</defs>
	<clipPath id="SVGID_6_">
		<use xlink:href="#SVGID_5_"  style="overflow:visible;"/>
	</clipPath>
	<g class="st2">
		<defs>
			<rect id="SVGID_7_" width="60" height="60"/>
		</defs>
		<clipPath id="SVGID_8_">
			<use xlink:href="#SVGID_7_"  style="overflow:visible;"/>
		</clipPath>
		<rect x="11" y="22" class="st3" width="38" height="19"/>
	</g>
</g>
<g>
	<defs>
		<path id="SVGID_9_" d="M25,16.5c0,1.9-1.6,3.5-3.5,3.5S18,18.4,18,16.5s1.6-3.5,3.5-3.5S25,14.6,25,16.5"/>
	</defs>
	<clipPath id="SVGID_10_">
		<use xlink:href="#SVGID_9_"  style="overflow:visible;"/>
	</clipPath>
	<g class="st4">
		<defs>
			<rect id="SVGID_11_" width="60" height="60"/>
		</defs>
		<clipPath id="SVGID_12_">
			<use xlink:href="#SVGID_11_"  style="overflow:visible;"/>
		</clipPath>
		<rect x="13" y="8" class="st5" width="17" height="17"/>
	</g>
</g>
<g>
	<defs>
		<path id="SVGID_13_" d="M42,16.5c0,1.9-1.6,3.5-3.5,3.5S35,18.4,35,16.5s1.6-3.5,3.5-3.5S42,14.6,42,16.5"/>
	</defs>
	<clipPath id="SVGID_14_">
		<use xlink:href="#SVGID_13_"  style="overflow:visible;"/>
	</clipPath>
	<g class="st6">
		<defs>
			<rect id="SVGID_15_" width="60" height="60"/>
		</defs>
		<clipPath id="SVGID_16_">
			<use xlink:href="#SVGID_15_"  style="overflow:visible;"/>
		</clipPath>
		<rect x="30" y="8" class="st7" width="17" height="17"/>
	</g>
</g>
</svg>
