<?xml version="1.0" encoding="utf-8"?>
<!-- Generator: Adobe Illustrator 21.0.0, SVG Export Plug-In . SVG Version: 6.00 Build 0)  -->
<svg version="1.1" id="圖層_1" xmlns="http://www.w3.org/2000/svg" xmlns:xlink="http://www.w3.org/1999/xlink" x="0px" y="0px"
	 viewBox="0 0 141.7 27.9" style="enable-background:new 0 0 141.7 27.9;" xml:space="preserve">
<style type="text/css">
	.st0{opacity:0;clip-path:url(#SVGID_2_);}
	.st1{opacity:0;}
	.st2{clip-path:url(#SVGID_2_);}
	.st3{clip-path:url(#SVGID_8_);fill:#005BAB;}
	.st4{clip-path:url(#SVGID_10_);fill:#005BAB;}
	.st5{clip-path:url(#SVGID_12_);fill:#005BAB;}
	.st6{clip-path:url(#SVGID_14_);fill:#005BAB;}
	.st7{clip-path:url(#SVGID_16_);fill:#005BAB;}
	.st8{clip-path:url(#SVGID_18_);fill:#005BAB;}
	.st9{clip-path:url(#SVGID_20_);fill:#005BAB;}
	.st10{clip-path:url(#SVGID_22_);fill:#005BAB;}
	.st11{clip-path:url(#SVGID_24_);fill:#005BAB;}
</style>
<g>
	<defs>
		<path id="SVGID_1_" d="M12,15.1L7.6,26l0,0l0,0c0,0,0,0.1,0,0.1c0,0.1,0.1,0.3,0.2,0.3c0,0,0,0,0,0c1.9,0.9,3.9,1.4,6.1,1.4
			c2.2,0,4.3-0.5,6.1-1.4c0,0,0,0,0,0c0.1-0.1,0.2-0.2,0.2-0.3c0-0.1,0-0.1,0-0.1c0,0,0,0,0,0l-4.4-10.8c0,0,0,0,0,0
			c-0.3-0.8-1.1-1.3-2-1.3C13,13.9,12.3,14.4,12,15.1z M0.4,13.9C0.2,13.9,0,14,0,14.2c0,0,0,0,0,0c0.1,3.5,1.5,6.8,3.7,9.2
			c0,0,0,0,0,0c0.1,0.1,0.2,0.1,0.3,0.1c0.2,0,0.3-0.1,0.4-0.2h0L8,14.4l0,0v0c0,0,0-0.1,0-0.1c0-0.2-0.2-0.4-0.4-0.4H0.4z
			 M20.1,13.9c-0.2,0-0.4,0.2-0.4,0.4c0,0.1,0,0.1,0,0.2l3.6,8.9h0c0.1,0.1,0.2,0.2,0.4,0.2c0.1,0,0.2,0,0.3-0.1c0,0,0,0,0,0
			c2.2-2.4,3.6-5.6,3.7-9.2c0,0,0,0,0,0v0c0-0.2-0.2-0.4-0.4-0.4H20.1z M11.5,0C11.5,0,11.5,0,11.5,0C11.4,0,11.4,0,11.5,0
			C6.4,0.9,2.3,4.5,0.7,9.3c0,0,0,0,0,0c0,0,0,0.1,0,0.1c0,0.2,0.2,0.4,0.4,0.4h8.4c0,0,0,0,0,0c0.1,0,0.3-0.1,0.3-0.2h0l0.7-1.7
			c0.9-2.4,1.3-4.8,1.3-6.9h0V0.4C11.9,0.2,11.7,0,11.5,0z M16.2,0c-0.2,0-0.4,0.2-0.4,0.4v0.7h0c0,2.1,0.4,4.5,1.3,6.9l0.7,1.7l0,0
			c0,0.1,0.2,0.2,0.3,0.2h0c0,0,0,0,0,0c0,0,0,0,0,0h0c0,0,0,0,0,0h8.4c0.2,0,0.4-0.2,0.4-0.4c0,0,0-0.1,0-0.1c0,0,0,0,0,0
			C25.4,4.5,21.3,0.9,16.2,0C16.3,0,16.3,0,16.2,0C16.3,0,16.3,0,16.2,0z"/>
	</defs>
	<clipPath id="SVGID_2_">
		<use xlink:href="#SVGID_1_"  style="overflow:visible;"/>
	</clipPath>
	<g class="st0">
		<g class="st1">
			<g>
				<defs>
					<rect id="SVGID_3_" y="0" width="27.7" height="27.9"/>
				</defs>
				<clipPath id="SVGID_4_">
					<use xlink:href="#SVGID_3_"  style="overflow:visible;"/>
				</clipPath>
				<g style="clip-path:url(#SVGID_4_);">
					
						<image style="overflow:visible;" width="117" height="117" xlink:href="9ABFB5E.jpg"  transform="matrix(0.24 0 0 0.24 -0.16 -5.907051e-02)">
					</image>
				</g>
			</g>
		</g>
	</g>
	<g class="st2">
		<g>
			<defs>
				<rect id="SVGID_5_" y="0" width="27.7" height="27.9"/>
			</defs>
			<clipPath id="SVGID_6_">
				<use xlink:href="#SVGID_5_"  style="overflow:visible;"/>
			</clipPath>
			<g style="clip-path:url(#SVGID_6_);">
				
					<image style="overflow:visible;" width="117" height="117" xlink:href="9ABFB59.jpg"  transform="matrix(0.24 0 0 0.24 -0.16 -5.907051e-02)">
				</image>
			</g>
		</g>
	</g>
</g>
<g>
	<defs>
		<path id="SVGID_7_" d="M39.7,6.1h19.7c0,0,0,0,0,0V3.7c0,0,0,0,0,0h-0.1H39.7c0,0,0,0,0,0L39.7,6.1C39.6,6,39.6,6.1,39.7,6.1"/>
	</defs>
	<clipPath id="SVGID_8_">
		<use xlink:href="#SVGID_7_"  style="overflow:visible;"/>
	</clipPath>
	<rect x="34.6" y="-1.3" class="st3" width="29.7" height="12.4"/>
</g>
<g>
	<defs>
		<path id="SVGID_9_" d="M59.9,22c0-0.2-0.2-0.4-0.4-0.4h0l-6.2,0c-0.4,0-0.7-0.4-0.9-0.7c0,0,0-0.1,0-0.2l0-9.8l7.4,0c0,0,0,0,0,0
			V8.5c0,0,0,0,0,0h-0.1H39.2c0,0,0,0,0,0v2.3c0,0,0,0,0,0h6.5c0,0.1-5.2,10.1-6.4,12.5c0,0,0,0,0,0c0,0,0,0.1,0,0.2
			c0,0.2,0.2,0.4,0.4,0.4h2.1c0,0,0,0,0,0c0,0,6.7-13,6.7-13.1h1.7v9.8c0,1.8,1.4,3.3,3,3.3l4.7,0C58.9,23.9,59.8,23.1,59.9,22
			C59.9,22.1,59.9,22.1,59.9,22C59.9,22,59.9,22,59.9,22"/>
	</defs>
	<clipPath id="SVGID_10_">
		<use xlink:href="#SVGID_9_"  style="overflow:visible;"/>
	</clipPath>
	<rect x="34.1" y="3.5" class="st4" width="30.8" height="25.5"/>
</g>
<g>
	<defs>
		<path id="SVGID_11_" d="M87.8,8.8c0-0.2-0.2-0.4-0.4-0.4h-9.7V3.1c0,0,0,0,0,0h-0.1h-2.2c0,0,0,0,0,0v5.3h-9c0,0,0,0,0,0v2.3
			c0,0,0,0,0,0h8.3c-0.1,0.1-6.9,10-8.6,12.5c0,0,0,0,0,0c0,0.1,0,0.1,0,0.2c0,0.2,0.2,0.4,0.4,0.4h2.1c0,0,0,0,0,0l7.4-10.7
			c0.4-0.6,1-0.6,1.4,0c0,0,7.4,10.6,7.4,10.6c0,0,0,0,0,0h2.1c0.2,0,0.4-0.2,0.4-0.4c0-0.1,0-0.2-0.1-0.2c0,0,0,0,0,0
			c-1.7-2.5-8.5-12.4-8.6-12.5c0.1,0,7.2,0,7.2,0C86.7,10.8,87.6,9.9,87.8,8.8C87.8,8.9,87.8,8.9,87.8,8.8
			C87.8,8.9,87.8,8.9,87.8,8.8"/>
	</defs>
	<clipPath id="SVGID_12_">
		<use xlink:href="#SVGID_11_"  style="overflow:visible;"/>
	</clipPath>
	<rect x="60.9" y="-1.9" class="st5" width="31.8" height="30.8"/>
</g>
<g>
	<defs>
		<path id="SVGID_13_" d="M114.1,23.3C114.1,23.3,114.1,23.3,114.1,23.3c-1.6-2.3-7.3-10.6-8.4-12.2c0,0-0.1-0.1-0.1-0.1
			c-0.5-0.8-0.8-1.7-0.8-2.6c0-0.1,0-0.1,0-0.2v-5c0,0,0,0,0,0h-2.4c0,0,0,0,0,0V8c0,0.1,0,0.2,0,0.3c0,0.9-0.3,1.8-0.7,2.5
			c-0.3,0.5-6.9,10.1-8.6,12.5c0,0,0,0,0,0c0,0.1,0,0.1,0,0.2c0,0.2,0.2,0.4,0.4,0.4h2.1c0,0,0,0,0,0l7.4-10.7c0.4-0.6,1-0.6,1.4,0
			c0,0,7.4,10.6,7.4,10.6c0,0,0,0,0,0h2.1c0.2,0,0.4-0.2,0.4-0.4C114.2,23.5,114.1,23.4,114.1,23.3"/>
	</defs>
	<clipPath id="SVGID_14_">
		<use xlink:href="#SVGID_13_"  style="overflow:visible;"/>
	</clipPath>
	<rect x="88" y="-1.9" class="st6" width="31.2" height="30.8"/>
</g>
<g>
	<defs>
		<path id="SVGID_15_" d="M120.5,6h9.1v0.6h-7.8c0,0,0,0,0,0v1.7c0,0,0,0,0,0l17.7,0c0,0,0,0,0,0c0,0,0,0,0,0V6.6c0,0,0,0,0,0h-7.7
			V6l9.1,0c0,0,0,0,0,0c0,0,0,0,0,0V4.2c0,0,0,0,0,0h-9.1V3.1c0,0,0,0,0,0c0,0,0,0,0,0h-2.1c0,0,0,0,0,0v1.1h-9.1c0,0,0,0,0,0
			L120.5,6C120.4,5.9,120.5,6,120.5,6"/>
	</defs>
	<clipPath id="SVGID_16_">
		<use xlink:href="#SVGID_15_"  style="overflow:visible;"/>
	</clipPath>
	<rect x="115.4" y="-1.9" class="st7" width="30.5" height="15.3"/>
</g>
<g>
	<defs>
		<path id="SVGID_17_" d="M121.8,13.7C121.8,13.7,121.8,13.7,121.8,13.7l0,1.8c0,0,0,0,0,0l17.6,0c0,0,0,0,0,0c0,0,0,0,0,0v-1.7
			c0,0,0,0,0,0h-7.5l0-0.6h7.5c0,0,0,0,0,0c0,0,0,0,0,0v-1.7c0,0,0,0,0,0h-17.6c0,0,0,0,0,0v1.7c0,0,0,0,0,0h7.8v0.6H121.8z"/>
	</defs>
	<clipPath id="SVGID_18_">
		<use xlink:href="#SVGID_17_"  style="overflow:visible;"/>
	</clipPath>
	<rect x="116.8" y="6.3" class="st8" width="27.6" height="14.2"/>
</g>
<g>
	<defs>
		<path id="SVGID_19_" d="M141.7,11C141.7,11,141.7,11,141.7,11c0-1.1-0.8-2.1-1.8-2.1c0,0,0,0,0,0h-19.4c0,0,0,0,0,0v1.7
			c0,0,0,0,0,0l19.2,0c0,0,0,0,0,0c0,0,0.1,0,0.2,0.1C140,10.9,140,11,140,11v1.6c0,0,0,0,0,0c0,0,0,0,0,0h1.1h0.6c0,0,0,0,0,0
			L141.7,11z"/>
	</defs>
	<clipPath id="SVGID_20_">
		<use xlink:href="#SVGID_19_"  style="overflow:visible;"/>
	</clipPath>
	<rect x="115.4" y="3.9" class="st9" width="31.3" height="13.7"/>
</g>
<g>
	<defs>
		<path id="SVGID_21_" d="M129.2,19c-0.5-0.5-1.2-0.6-1.4-0.6c-0.1,0-0.1,0-0.1,0h-6.5c0,0,0,0,0,0v2.7v0v2c0,0,0,0,0,0h1.8
			c0,0,0,0,0,0l4.8,0c0,0,0,0,0,0h0.1c0,0,0,0,0,0c0.2,0,0.9-0.1,1.4-0.6c0.7-0.7,0.6-1.4,0.6-1.5v-0.7
			C129.8,20.4,129.8,19.6,129.2,19 M127.9,21.3c-0.1,0.1-0.2,0.1-0.2,0.1c0,0,0,0,0,0h-4.8v-1c0,0,0-0.1,0.1-0.2
			c0.1-0.1,0.2-0.1,0.2-0.1h0h4.5h0c0,0,0.1,0,0.2,0.1c0.1,0.1,0.1,0.2,0.1,0.2v0.7C127.9,21.2,127.9,21.3,127.9,21.3"/>
	</defs>
	<clipPath id="SVGID_22_">
		<use xlink:href="#SVGID_21_"  style="overflow:visible;"/>
	</clipPath>
	<rect x="116.1" y="13.4" class="st10" width="18.7" height="14.8"/>
</g>
<g>
	<defs>
		<path id="SVGID_23_" d="M141.3,16h-20.9c0,0,0,0,0,0v1.7c0,0,0,0,0,0c0,0,0,0,0,0l17.3,0v0.6h-7c0,0,0,0,0,0v1.7c0,0,0,0,0,0h2
			l-1.1,2.4c0,0.1,0,0.1,0,0.2c0,0.2,0.2,0.4,0.4,0.4v0h1.5c0,0,0,0,0,0l1.4-3h2.8v1.7c0,0,0,0.1-0.1,0.2c-0.1,0.1-0.2,0.1-0.2,0.1
			h0c0,0,0,0,0,0c0,0,0,0,0,0c0,0-1.7,0-2.5,0h0c-0.2,0-0.4,0.2-0.4,0.4c0,0,0,0.1,0,0.1v0c0,0,0,0,0,0c0,0,0,0,0,0
			c0.2,0.7,0.9,1.3,1.7,1.3l1.1,0c0,0,0,0,0.1,0c0.2,0,0.9,0,1.5-0.6c0.6-0.6,0.6-1.4,0.6-1.5c0-0.1,0-0.2,0-0.4c0-0.3,0-0.8,0-1.2
			h1.4c0,0,0,0,0,0v-1.7c0,0,0,0,0,0h-1.4v-0.6h0.4c0.8,0,1.4-0.6,1.6-1.3c0,0,0,0,0,0c0,0,0-0.1,0-0.1
			C141.6,16.2,141.5,16,141.3,16"/>
	</defs>
	<clipPath id="SVGID_24_">
		<use xlink:href="#SVGID_23_"  style="overflow:visible;"/>
	</clipPath>
	<rect x="115.4" y="11" class="st11" width="31.2" height="17.9"/>
</g>
</svg>
